<svg width="92" height="92" viewBox="0 0 92 92" fill="none" xmlns="http://www.w3.org/2000/svg">
<path d="M46 7.66666C40.966 7.66666 35.9813 8.65818 31.3305 10.5846C26.6797 12.511 22.4538 15.3347 18.8943 18.8942C11.7054 26.0831 7.66669 35.8334 7.66669 46C7.66669 62.9433 18.6684 77.3183 33.8867 82.4167C35.8034 82.7233 36.4167 81.535 36.4167 80.5V74.0217C25.7984 76.3217 23.5367 68.885 23.5367 68.885C21.7734 64.4383 19.2817 63.25 19.2817 63.25C15.7934 60.8733 19.55 60.95 19.55 60.95C23.3834 61.2183 25.415 64.8983 25.415 64.8983C28.75 70.725 34.385 69 36.57 68.08C36.915 65.5883 37.9117 63.9017 38.985 62.9433C30.475 61.985 21.5434 58.6883 21.5434 44.0833C21.5434 39.8283 23 36.4167 25.4917 33.695C25.1084 32.7367 23.7667 28.75 25.875 23.575C25.875 23.575 29.095 22.54 36.4167 27.485C39.445 26.6417 42.7417 26.22 46 26.22C49.2584 26.22 52.555 26.6417 55.5834 27.485C62.905 22.54 66.125 23.575 66.125 23.575C68.2334 28.75 66.8917 32.7367 66.5084 33.695C69 36.4167 70.4567 39.8283 70.4567 44.0833C70.4567 58.7267 61.4867 61.9467 52.9384 62.905C54.3184 64.0933 55.5834 66.4317 55.5834 69.9967V80.5C55.5834 81.535 56.1967 82.7617 58.1517 82.4167C73.37 77.28 84.3334 62.9433 84.3334 46C84.3334 40.966 83.3418 35.9813 81.4154 31.3305C79.489 26.6796 76.6654 22.4538 73.1058 18.8942C69.5462 15.3347 65.3204 12.511 60.6696 10.5846C56.0187 8.65818 51.034 7.66666 46 7.66666Z" fill="black"/>
</svg>
